<mxfile host="app.diagrams.net" modified="2023-05-17T18:04:01.934Z" agent="Mozilla/5.0 (Windows NT 10.0; Win64; x64) AppleWebKit/537.36 (KHTML, like Gecko) Chrome/113.0.0.0 Safari/537.36" etag="92JFs05jVwYP111kiwot" version="21.3.2" type="github">
  <diagram name="Page-1" id="e7e014a7-5840-1c2e-5031-d8a46d1fe8dd">
    <mxGraphModel dx="1493" dy="645" grid="1" gridSize="10" guides="1" tooltips="1" connect="1" arrows="1" fold="1" page="1" pageScale="1" pageWidth="1169" pageHeight="826" background="none" math="0" shadow="0">
      <root>
        <mxCell id="0" />
        <mxCell id="1" parent="0" />
        <mxCell id="AZ1L6zL0LF5ouqsV8ztN-42" value="DepÃ³sito" style="shape=umlFrame;whiteSpace=wrap;html=1;pointerEvents=0;recursiveResize=0;container=1;collapsible=0;width=160;rounded=1;sketch=1;hachureGap=4;jiggle=2;curveFitting=1;fontFamily=Architects Daughter;fontSource=https%3A%2F%2Ffonts.googleapis.com%2Fcss%3Ffamily%3DArchitects%2BDaughter;fontSize=20;movable=1;resizable=1;rotatable=1;deletable=1;editable=1;locked=0;connectable=1;" vertex="1" parent="1">
          <mxGeometry width="1160" height="820" as="geometry" />
        </mxCell>
        <mxCell id="AZ1L6zL0LF5ouqsV8ztN-43" value="" style="group" vertex="1" connectable="0" parent="1">
          <mxGeometry x="100" y="70" width="950" height="660" as="geometry" />
        </mxCell>
        <mxCell id="2" value="Cliente" style="swimlane;whiteSpace=wrap;sketch=1;curveFitting=1;jiggle=2;rounded=1;" parent="AZ1L6zL0LF5ouqsV8ztN-43" vertex="1">
          <mxGeometry width="316.6666666666667" height="660" as="geometry" />
        </mxCell>
        <mxCell id="AZ1L6zL0LF5ouqsV8ztN-46" style="edgeStyle=orthogonalEdgeStyle;rounded=1;sketch=1;hachureGap=4;jiggle=2;curveFitting=1;orthogonalLoop=1;jettySize=auto;html=1;entryX=0;entryY=0.5;entryDx=0;entryDy=0;fontFamily=Architects Daughter;fontSource=https%3A%2F%2Ffonts.googleapis.com%2Fcss%3Ffamily%3DArchitects%2BDaughter;fontSize=16;" edge="1" parent="2" source="AZ1L6zL0LF5ouqsV8ztN-44" target="AZ1L6zL0LF5ouqsV8ztN-45">
          <mxGeometry relative="1" as="geometry" />
        </mxCell>
        <mxCell id="AZ1L6zL0LF5ouqsV8ztN-44" value="" style="ellipse;fillColor=strokeColor;html=1;rounded=1;sketch=1;hachureGap=4;jiggle=2;curveFitting=1;fontFamily=Architects Daughter;fontSource=https%3A%2F%2Ffonts.googleapis.com%2Fcss%3Ffamily%3DArchitects%2BDaughter;fontSize=20;" vertex="1" parent="2">
          <mxGeometry x="30" y="60" width="30" height="30" as="geometry" />
        </mxCell>
        <mxCell id="AZ1L6zL0LF5ouqsV8ztN-45" value="State" style="html=1;align=center;verticalAlign=top;rounded=1;absoluteArcSize=1;arcSize=10;dashed=0;whiteSpace=wrap;sketch=1;hachureGap=4;jiggle=2;curveFitting=1;fontFamily=Architects Daughter;fontSource=https%3A%2F%2Ffonts.googleapis.com%2Fcss%3Ffamily%3DArchitects%2BDaughter;fontSize=20;" vertex="1" parent="2">
          <mxGeometry x="120" y="55" width="140" height="40" as="geometry" />
        </mxCell>
        <mxCell id="3" value="Sistema" style="swimlane;whiteSpace=wrap;sketch=1;curveFitting=1;jiggle=2;rounded=1;" parent="AZ1L6zL0LF5ouqsV8ztN-43" vertex="1">
          <mxGeometry x="316.6666666666667" width="316.6666666666667" height="660" as="geometry">
            <mxRectangle x="444.5" y="128" width="90" height="30" as="alternateBounds" />
          </mxGeometry>
        </mxCell>
        <mxCell id="26" value="" style="edgeStyle=elbowEdgeStyle;elbow=horizontal;verticalAlign=bottom;endArrow=open;endSize=8;strokeColor=#FF0000;endFill=1;rounded=1;sketch=1;curveFitting=1;jiggle=2;" parent="3" source="25" edge="1">
          <mxGeometry x="147.02380952380955" y="104.21052631578948" as="geometry">
            <mxPoint x="147.02380952380955" y="156.31578947368422" as="targetPoint" />
          </mxGeometry>
        </mxCell>
        <mxCell id="4" value="Caixa" style="swimlane;whiteSpace=wrap;sketch=1;curveFitting=1;jiggle=2;rounded=1;" parent="AZ1L6zL0LF5ouqsV8ztN-43" vertex="1">
          <mxGeometry x="633.3333333333334" width="316.6666666666667" height="660" as="geometry" />
        </mxCell>
      </root>
    </mxGraphModel>
  </diagram>
</mxfile>
